<?xml version="1.0" encoding="UTF-8" standalone="no"?>
<!-- Created with Inkscape (http://www.inkscape.org/) -->

<svg
   xmlns:dc="http://purl.org/dc/elements/1.1/"
   xmlns:cc="http://creativecommons.org/ns#"
   xmlns:rdf="http://www.w3.org/1999/02/22-rdf-syntax-ns#"
   xmlns:svg="http://www.w3.org/2000/svg"
   xmlns="http://www.w3.org/2000/svg"
   xmlns:sodipodi="http://sodipodi.sourceforge.net/DTD/sodipodi-0.dtd"
   xmlns:inkscape="http://www.inkscape.org/namespaces/inkscape"
   width="702.97455"
   height="689.48364"
   viewBox="0 0 185.99535 182.42587"
   version="1.1"
   id="svg8"
   inkscape:version="0.92.4 (5da689c313, 2019-01-14)"
   sodipodi:docname="Rexona (2019).svg">
  <defs
     id="defs2" />
  <sodipodi:namedview
     id="base"
     pagecolor="#ffffff"
     bordercolor="#666666"
     borderopacity="1.0"
     inkscape:pageopacity="0.0"
     inkscape:pageshadow="2"
     inkscape:zoom="0.12374369"
     inkscape:cx="579.89333"
     inkscape:cy="563.5954"
     inkscape:document-units="mm"
     inkscape:current-layer="layer1"
     showgrid="false"
     fit-margin-top="0"
     fit-margin-left="0"
     fit-margin-right="0"
     fit-margin-bottom="0"
     units="px"
     inkscape:window-width="1366"
     inkscape:window-height="745"
     inkscape:window-x="-8"
     inkscape:window-y="-8"
     inkscape:window-maximized="1" />
  <metadata
     id="metadata5">
    <rdf:RDF>
      <cc:Work
         rdf:about="">
        <dc:format>image/svg+xml</dc:format>
        <dc:type
           rdf:resource="http://purl.org/dc/dcmitype/StillImage" />
        <dc:title></dc:title>
      </cc:Work>
    </rdf:RDF>
  </metadata>
  <g
     inkscape:label="Layer 1"
     inkscape:groupmode="layer"
     id="layer1"
     transform="translate(328.8983,39.648676)">
    <path
       style="fill:#212c54;fill-opacity:1;stroke-width:0.1281486"
       d="m -249.12143,85.717813 c -0.372,-0.188109 -0.81142,-0.523462 -0.97651,-0.745246 -0.16507,-0.221776 -1.15146,-2.162071 -2.19197,-4.311765 -2.51145,-5.188621 -11.03867,-22.242586 -13.93655,-27.872321 -4.3118,-8.376533 -7.86509,-15.117918 -14.15075,-26.847125 -0.92724,-1.730242 -1.06457,-2.069209 -1.06529,-2.629344 -10e-4,-1.207546 1.07249,-2.134507 2.25151,-1.943183 0.58868,0.09554 8.82381,5.282571 20.33618,12.809097 1.46378,0.956985 2.95582,1.837755 3.31564,1.957265 0.96126,0.319278 2.39386,0.209788 3.29871,-0.252123 1.08226,-0.552483 1.78613,-1.312366 4.27609,-4.616333 10.18389,-13.513168 24.45034,-31.24014349 37.13346,-46.140712 9.36402,-11.001159 21.09312,-24.247919 21.78808,-24.607295 0.67359,-0.348328 1.52045,-0.135858 1.90354,0.477589 0.40781,0.652984 0.25153,1.086232 -1.75535,4.866336 -16.78779,31.621081 -38.0774,76.508222 -54.61798,115.156823 -0.79329,1.853592 -1.5653,3.552627 -1.71559,3.775618 -0.15027,0.223005 -0.5211,0.579664 -0.82404,0.792585 -0.46582,0.327381 -0.69294,0.393688 -1.47182,0.429645 -0.79381,0.03662 -1.01439,-0.0048 -1.59736,-0.299511 z"
       id="path917"
       inkscape:connector-curvature="0" />
    <path
       id="path857"
       style="fill:#212c54;fill-opacity:1;stroke-width:0.16651371"
       d="m -264.44866,141.74749 c -0.15382,-0.18535 -0.15242,-0.32577 0.007,-0.62443 0.17003,-0.31998 7.95905,-11.78158 10.18653,-14.98955 l 0.65973,-0.95013 -5.0498,-7.37555 c -3.23042,-4.71823 -5.05204,-7.52553 -5.05604,-7.79183 l -0.007,-0.41628 3.91769,-0.0446 3.91772,-0.0445 3.23507,4.74755 c 1.77929,2.61116 3.28354,4.69181 3.34279,4.62369 0.0592,-0.0681 1.52004,-2.20321 3.24623,-4.74463 l 3.13852,-4.62075 h 3.86831 c 3.7163,0 3.87247,0.0131 3.97355,0.33153 0.0578,0.18235 0.0484,0.42588 -0.021,0.54117 -0.0695,0.11531 -2.36727,3.49051 -5.10617,7.50047 l -4.97984,7.29084 0.82604,1.20136 c 3.34436,4.86391 9.61,14.06102 9.86576,14.48158 0.22916,0.37683 0.2692,0.59565 0.1498,0.81874 -0.15058,0.28135 -0.45257,0.30447 -3.97575,0.30447 h -3.81281 l -3.54957,-5.20355 c -1.95225,-2.86195 -3.62449,-5.19964 -3.71608,-5.19487 -0.0915,0.004 -1.76382,2.34639 -3.71607,5.20355 l -3.54956,5.19487 h -3.79828 c -3.09798,0 -3.83487,-0.0441 -3.99674,-0.23912 z m 113.26211,-5.53085 1.12396,-0.10616 v -4.46197 c 0,-3.38246 -0.0502,-4.49298 -0.20749,-4.59019 -0.35366,-0.21858 -6.16775,-0.27542 -7.85217,-0.0768 -2.85483,0.3367 -4.42472,1.23413 -4.89299,2.79706 -0.34664,1.157 -0.25594,3.01159 0.19395,3.96559 0.96039,2.03656 2.43307,2.51669 7.84655,2.55819 1.46531,0.0112 3.17001,-0.0274 3.78819,-0.0858 z m -9.28314,5.74641 c -1.66169,-0.18279 -4.04395,-0.84779 -5.15238,-1.43826 -0.46317,-0.24674 -1.33486,-0.93667 -1.93709,-1.53319 -1.798,-1.78088 -2.46792,-3.60458 -2.60043,-7.07906 -0.0991,-2.59727 0.16362,-4.09672 1.02098,-5.82797 0.76454,-1.54384 1.37117,-2.24292 2.71956,-3.134 2.54307,-1.6806 4.77282,-2.12735 11.15706,-2.2354 4.21257,-0.0713 4.7241,-0.10948 4.85979,-0.36301 0.18644,-0.34836 -0.048,-1.47369 -0.48252,-2.31668 -1.5208,-2.95005 -6.54071,-3.68779 -12.47098,-1.83276 -1.25035,0.39112 -1.7963,0.49299 -1.99817,0.37281 -0.30285,-0.18028 -0.93743,-1.40659 -2.04683,-3.95546 -0.85588,-1.9664 -0.94071,-1.83129 1.6808,-2.67755 4.68969,-1.51389 9.75146,-1.81782 13.57589,-0.81512 0.54949,0.14406 1.70187,0.59664 2.56085,1.00573 1.29759,0.61797 1.79209,0.97376 2.92343,2.10334 1.55507,1.55268 2.33917,2.89749 2.98078,5.11232 0.70285,2.42626 0.77549,3.79346 0.77599,14.60538 v 10.19897 l -8.11755,-0.0218 c -4.46465,-0.0119 -8.71698,-0.0878 -9.44965,-0.16829 z m -40.51279,-0.01 c -0.15266,-0.15266 -0.19981,-4.00243 -0.19981,-16.3125 0,-16.07028 6.3e-4,-16.11314 0.34116,-16.29524 0.22295,-0.11932 1.40782,-0.16462 3.41989,-0.13075 2.51565,0.0423 3.10755,0.0975 3.23634,0.30162 0.0866,0.13737 0.15875,0.68699 0.16015,1.22137 l 0.003,0.97161 0.78533,-0.69127 c 1.81153,-1.59459 4.33507,-2.39045 7.54035,-2.37805 6.20337,0.0241 10.46415,3.27822 12.17492,9.29869 0.36871,1.29759 0.3757,1.49817 0.43608,12.53087 0.0461,8.41823 0.0126,11.2709 -0.1342,11.44782 -0.1571,0.1893 -0.87408,0.23565 -3.64616,0.23565 -3.1314,0 -3.47607,-0.0283 -3.72616,-0.30453 -0.2501,-0.27635 -0.27559,-1.24541 -0.27559,-10.48215 0,-6.84388 -0.0608,-10.46669 -0.18558,-11.06006 -0.46166,-2.19494 -1.85001,-3.88895 -3.60547,-4.39927 -1.25446,-0.36468 -3.7541,-0.34906 -4.96249,0.031 -1.75835,0.55307 -3.09221,2.19465 -3.54938,4.36824 -0.12483,0.59351 -0.1856,4.22384 -0.1856,11.08898 0,9.67651 -0.0157,10.2209 -0.30451,10.48217 -0.26246,0.23753 -0.77505,0.27557 -3.71325,0.27557 -2.42923,0 -3.46617,-0.0574 -3.60855,-0.19981 z m -127.7128,0.003 c -0.15767,-0.15767 -0.20302,-5.19586 -0.20302,-22.55391 0,-20.096973 0.0264,-22.377268 0.26166,-22.612548 0.23057,-0.230563 1.20508,-0.261617 8.2008,-0.261252 12.19157,6.3e-4 14.50909,0.290942 18.4295,2.30875 1.16905,0.601699 1.81125,1.082592 2.92011,2.1867 2.32106,2.31107 3.47555,5.03557 3.85931,9.10768 0.64123,6.80388 -2.22598,12.06501 -8.19478,15.03685 -0.77846,0.3876 -1.44181,0.7287 -1.47414,0.75801 -0.0323,0.0294 2.38421,3.46087 5.37007,7.62569 5.56834,7.76699 5.89298,8.31422 5.05418,8.51945 -0.20606,0.0504 -2.24742,0.0706 -4.53634,0.0449 l -4.16169,-0.0469 -7.71958,-10.90666 -7.71958,-10.90665 4.55466,-0.10017 c 4.82922,-0.10626 5.55714,-0.21012 7.41457,-1.05834 1.81021,-0.82665 3.11222,-2.55794 3.56613,-4.74188 0.3027,-1.45641 0.1109,-4.69778 -0.35042,-5.92206 -1.01064,-2.68211 -2.91304,-3.9543 -6.57515,-4.39702 -0.82425,-0.0996 -3.418,-0.18138 -5.7639,-0.18164 -4.06658,-5e-4 -4.28575,0.0156 -4.70506,0.34547 -0.24189,0.19027 -0.53298,0.50873 -0.64688,0.70768 -0.16027,0.27995 -0.22592,4.52249 -0.29035,18.76152 l -0.0832,18.39976 -3.50192,0.0449 c -2.58361,0.0331 -3.55514,-0.009 -3.70493,-0.15819 z m 110.93905,-6.21964 c 2.82213,-0.73506 4.88837,-2.88406 5.91853,-6.15552 0.51744,-1.64323 0.63882,-4.688 0.26265,-6.58825 -0.91906,-4.64258 -4.08242,-7.48216 -8.33526,-7.48216 -3.45965,0 -6.08869,1.63222 -7.5619,4.69478 -0.92873,1.93068 -1.24892,3.66355 -1.14575,6.20091 0.12865,3.16414 0.93539,5.21537 2.82932,7.19396 1.00456,1.04948 2.45276,1.90726 3.72298,2.20517 1.03957,0.24381 3.24418,0.20856 4.30943,-0.0689 z m -5.57238,6.77078 c -6.99446,-1.53091 -11.93749,-7.41195 -12.65996,-15.06242 -0.78835,-8.34795 3.85077,-15.8129 11.28268,-18.15532 6.58609,-2.07582 13.8661,0.41513 17.69471,6.05451 2.3301,3.43212 3.41117,7.78787 3.00274,12.09831 -0.70446,7.43436 -5.08413,12.93599 -11.84994,14.88559 -1.78632,0.51474 -5.52749,0.60455 -7.47023,0.17933 z m -46.44886,-19.93009 c 0.51839,-0.62461 -0.82191,-3.8303 -2.17701,-5.20693 -1.44725,-1.47027 -3.25531,-2.18724 -5.52452,-2.19075 -2.56135,-0.003 -4.54571,0.74594 -6.10221,2.30602 -1.44089,1.44421 -2.76543,4.2546 -2.36119,5.00994 0.18046,0.3372 0.28658,0.34169 8.06602,0.34169 6.9417,0 7.90893,-0.031 8.09891,-0.25997 z m -10.75698,20.00868 c -3.71543,-0.70779 -6.44185,-2.09982 -8.83017,-4.50842 -4.09465,-4.12947 -5.69887,-11.03153 -4.04051,-17.38414 1.51847,-5.81671 5.97474,-10.33247 11.54695,-11.7011 2.21833,-0.54486 5.54581,-0.51232 7.78016,0.0761 6.83906,1.80101 11.14887,8.22627 11.1902,16.68287 l 0.0122,2.4977 -11.7037,0.0832 c -12.67877,0.0902 -12.15375,0.0478 -11.93801,0.96424 0.58439,2.48261 2.34525,4.80979 4.45295,5.88505 1.79568,0.91608 4.97144,1.23152 7.34202,0.72926 1.4919,-0.31609 3.26397,-1.13997 4.57059,-2.12496 0.57724,-0.43517 1.18283,-0.7912 1.34574,-0.7912 0.42326,0 3.849,4.07027 3.849,4.57315 0,0.81151 -3.23932,3.20566 -5.53527,4.09107 -0.71354,0.27518 -1.80188,0.61583 -2.41854,0.757 -1.56187,0.35758 -6.10714,0.45903 -7.62361,0.17014 z"
       inkscape:connector-curvature="0" />
  </g>
</svg>
